<?xml version="1.0" standalone="no"?>
<!DOCTYPE svg PUBLIC "-//W3C//DTD SVG 20010904//EN"
 "http://www.w3.org/TR/2001/REC-SVG-20010904/DTD/svg10.dtd">
<svg version="1.0" xmlns="http://www.w3.org/2000/svg"
 width="700.000000pt" height="700.000000pt" viewBox="0 0 700.000000 700.000000"
 preserveAspectRatio="xMidYMid meet">
<metadata>
Created by potrace 1.14, written by Peter Selinger 2001-2017
</metadata>
<g transform="translate(0.000000,700.000000) scale(0.100000,-0.100000)"
fill="#000000" stroke="none">
<path d="M2189 6586 c0 -17 0 -410 -1 -873 0 -777 -1 -843 -16 -843 -10 -1
-111 -1 -226 -1 -232 0 -264 -6 -291 -58 -8 -17 -15 -33 -15 -36 0 -3 0 -353
0 -777 l0 -773 -218 0 c-285 -1 -320 -6 -512 -68 -210 -69 -445 -246 -579
-437 -63 -89 -140 -247 -170 -346 -43 -147 -49 -212 -49 -574 0 -368 7 -439
59 -594 148 -440 539 -758 999 -814 75 -9 4267 -9 4357 0 40 4 94 13 120 19
26 6 57 12 68 14 43 8 167 45 180 54 6 4 32 16 60 26 157 58 352 192 509 349
136 137 271 356 339 551 36 101 56 186 77 325 9 57 6 794 -3 842 -22 113 -46
219 -57 243 -5 11 -18 46 -30 79 -76 213 -245 459 -414 601 -32 28 -63 55 -70
60 -6 6 -40 31 -76 57 -184 129 -430 226 -645 254 -27 4 -57 8 -65 10 -8 1
-23 3 -32 3 -17 1 -18 27 -18 401 0 355 -2 404 -16 426 -31 46 -56 52 -234 50
-91 -1 -171 0 -177 2 -10 3 -13 144 -13 660 l0 656 -272 271 -273 272 -1147 0
-1148 0 -1 -31z"/>
</g>
</svg>
